<svg id="Layer_1" enable-background="new 0 0 512.001 512.001" height="512" viewBox="0 0 512.001 512.001" width="512" xmlns="http://www.w3.org/2000/svg"><g><g><path d="m462.001 26.001h-19.999c-5.522 0-10 4.477-10 10v49.999h-.001-372c-11.028 0-20 8.972-20 20v80.002h-30.001c-5.523 0-10 4.477-10 10v40c0 5.523 4.477 10 10 10h30.001v220c0 11.028 8.972 20 20 20h402c27.57 0 50-22.43 50-50v-360c0-27.572-22.429-50.001-50-50.001zm-9.999 20h9.999c16.542 0 30 13.458 30 30v320.023c-8.362-6.29-18.754-10.023-30-10.023h-9.999zm-392.001 59.999h372 .001v20h-121.002c-5.522 0-10 4.477-10 10s4.478 10 10 10h121.003v145.79l-18.207 17.773-25.657-57.629c-1.642-3.687-5.387-6.023-9.37-5.93-4.034.094-7.615 2.604-9.082 6.363l-24.233 62.123-20.955-33.761c-1.953-3.147-5.495-4.954-9.179-4.703-3.694.252-6.946 2.526-8.453 5.909l-20.288 45.568-23.959-84.238c-1.174-4.13-4.854-7.049-9.144-7.253-4.282-.205-8.23 2.354-9.791 6.354l-26.01 66.677-20.689-20.196c-3.953-3.858-10.284-3.782-14.141.17-3.858 3.952-3.782 10.283.17 14.141l31.5 30.75c2.401 2.344 5.817 3.33 9.097 2.619 3.28-.708 5.985-3.014 7.205-6.14l20.697-53.059 23.369 82.162c1.15 4.047 4.713 6.941 8.91 7.239.238.017.476.025.711.025 3.926 0 7.519-2.307 9.133-5.933l23.823-53.508 21.546 34.713c1.996 3.218 5.644 5.029 9.412 4.685 3.772-.347 7.023-2.795 8.4-6.324l22.794-58.432 21.755 48.865c1.331 2.989 4.04 5.138 7.254 5.754 3.216.615 6.526-.379 8.867-2.666l14.515-14.169v76.262c0 2.652 1.054 5.196 2.929 7.071 1.876 1.875 4.419 2.929 7.071 2.929h19.999c9.77 0 18.461 4.696 23.943 11.948-5.535 5.124-14.414 8.147-23.943 8.049h-361.999v-179.997h79.997v10c0 5.523 4.477 10 10 10s10-4.477 10-10v-11.72c11.639-4.128 20-15.244 20-28.28 0-16.542-13.458-30-30-30h-89.997v-40.002h120.997c5.523 0 10-4.477 10-10s-4.477-10-10-10h-130.997c-5.523 0-10 4.477-10 10v50.002h-20.002zm-40.001 120.001v-20h170c5.514 0 10 4.486 10 10s-4.486 10-10 10zm442.001 240h-402v-220h20.001v189.997c0 5.523 4.477 10 10 10h371.919c.171.001.34.002.511.002 10.877 0 21.134-2.74 29.472-7.706-1.175 15.473-14.133 27.707-29.903 27.707z"/><path d="m266.002 145.999c5.522 0 10-4.477 10-10s-4.478-10-10-10h-.007c-5.522 0-9.997 4.477-9.997 10s4.482 10 10.004 10z"/></g></g></svg>